<svg width="20" height="20" viewBox="0 0 20 20" fill="none" xmlns="http://www.w3.org/2000/svg">
<path d="M9.99984 1.66667C5.40484 1.66667 1.6665 5.405 1.6665 10C1.6665 14.595 5.40484 18.3333 9.99984 18.3333C14.5948 18.3333 18.3332 14.595 18.3332 10C18.3332 5.405 14.5948 1.66667 9.99984 1.66667ZM9.99984 16.6667C6.324 16.6667 3.33317 13.6758 3.33317 10C3.33317 6.32417 6.324 3.33333 9.99984 3.33333C13.6757 3.33333 16.6665 6.32417 16.6665 10C16.6665 13.6758 13.6757 16.6667 9.99984 16.6667Z" fill="white"/>
<path d="M10.8332 5.83333H9.1665V10.8333H14.1665V9.16667H10.8332V5.83333Z" fill="white"/>
</svg>