<svg width="20" height="20" viewBox="0 0 20 20" fill="none" xmlns="http://www.w3.org/2000/svg">
<path d="M19.1681 2.78545H16.8168V1.24155C16.8168 0.782071 16.4444 0.40966 15.9849 0.40966C15.5254 0.40966 15.153 0.782071 15.153 1.24155V2.78545H4.84698V1.24155C4.84698 0.782071 4.47457 0.40966 4.01509 0.40966C3.5556 0.40966 3.18319 0.782071 3.18319 1.24155V2.78545H0.831893C0.372411 2.78545 0 3.15787 0 3.61735V18.7585C0 19.218 0.372411 19.5904 0.831893 19.5904H19.1681C19.6276 19.5904 20 19.218 20 18.7585V3.61735C20 3.15787 19.6276 2.78545 19.1681 2.78545ZM18.3362 4.44924V6.29762H1.66379V4.44924H18.3362ZM1.66379 17.9266V7.9614H18.3362V17.9266H1.66379V17.9266Z" fill="white"/>
<path d="M12.9673 9.49449L8.30238 14.1594L7.03292 12.8899C6.70801 12.5651 6.18133 12.5651 5.85643 12.8899C5.53153 13.2148 5.53163 13.7416 5.85643 14.0665L7.71414 15.9242C7.87655 16.0866 8.08951 16.1678 8.30238 16.1678C8.51526 16.1678 8.72813 16.0866 8.89062 15.9242L14.1438 10.6712C14.4687 10.3463 14.4687 9.81948 14.1438 9.49458C13.8189 9.16977 13.2922 9.16968 12.9673 9.49449Z" fill="white"/>
</svg>