<svg width="18" height="18" viewBox="0 0 18 18" fill="none" xmlns="http://www.w3.org/2000/svg">
<g clip-path="url(#clip0_19_453)">
<path d="M17.406 16.7107L12.3482 11.5426C13.3454 10.3215 13.9451 8.76115 13.9451 7.05687C13.9451 3.16877 10.8201 0.00738525 6.97615 0.00738525C3.13222 0.00738525 0 3.17246 0 7.06056C0 10.9487 3.125 14.1101 6.96892 14.1101C8.60187 14.1101 10.1048 13.5383 11.2969 12.5828L16.3728 17.7658C16.6691 18.0682 17.1098 18.0682 17.406 17.7658C17.7023 17.4633 17.7023 17.0132 17.406 16.7107ZM1.48121 7.06056C1.48121 4.00615 3.94508 1.52352 6.96892 1.52352C9.99276 1.52352 12.4566 4.00615 12.4566 7.06056C12.4566 10.115 9.99276 12.5976 6.96892 12.5976C3.94508 12.5976 1.48121 10.1113 1.48121 7.06056Z" fill="black"/>
</g>
<defs>
<clipPath id="clip0_19_453">
<rect width="17.6282" height="18" fill="white"/>
</clipPath>
</defs>
</svg>
