<svg width="20" height="20" viewBox="0 0 20 20" fill="none" xmlns="http://www.w3.org/2000/svg">
<g clip-path="url(#clip0_207_107)">
<path d="M10 0.489899C4.486 0.489899 0 4.16409 0 8.68031C0 11.3416 1.54664 13.7974 4.16344 15.3347C3.80039 17.032 2.98675 18.223 2.97784 18.2359L2.08834 19.51L3.63112 19.3123C3.80884 19.2894 7.94785 18.7408 10.898 16.8378C13.3206 16.6615 15.5707 15.7727 17.2518 14.3246C19.024 12.7979 20 10.7934 20 8.6804C20 4.16409 15.514 0.489899 10 0.489899ZM10.632 15.4746L10.4438 15.4854L10.2873 15.5905C8.57174 16.743 6.27511 17.3823 4.83032 17.6949C5.1334 17.0174 5.45192 16.1167 5.6109 15.0768L5.6852 14.5908L5.24977 14.3626C2.82519 13.092 1.37765 10.9679 1.37765 8.68031C1.37765 4.92382 5.24563 1.86755 10 1.86755C14.7544 1.86755 18.6223 4.92373 18.6223 8.68031C18.6223 12.233 15.1126 15.2174 10.632 15.4746Z" fill="white"/>
</g>
<defs>
<clipPath id="clip0_207_107">
<rect width="20" height="20" fill="white"/>
</clipPath>
</defs>
</svg>
